<svg xmlns="http://www.w3.org/2000/svg" viewBox="0 0 1800 900" role="img" aria-labelledby="title desc">
  <title id="title">Microscopy and spectral imaging hero graphic</title>
  <desc id="desc">A calm scientific illustration of microscopy, spectral imaging, and tissue-like structures.</desc>
  <defs>
    <linearGradient id="bg" x1="0" y1="0" x2="1" y2="1">
      <stop offset="0" stop-color="#f7fbfb"/>
      <stop offset="0.44" stop-color="#eaf5f2"/>
      <stop offset="1" stop-color="#c8dee0"/>
    </linearGradient>
    <linearGradient id="scope" x1="1180" y1="95" x2="1600" y2="560">
      <stop offset="0" stop-color="#eef6f7"/>
      <stop offset="1" stop-color="#23414c"/>
    </linearGradient>
    <linearGradient id="beam" x1="1150" y1="420" x2="1560" y2="620">
      <stop offset="0" stop-color="#2a9da7"/>
      <stop offset="0.32" stop-color="#22b66f"/>
      <stop offset="0.58" stop-color="#d7b33f"/>
      <stop offset="1" stop-color="#c45b4d"/>
    </linearGradient>
    <filter id="soft" x="-20%" y="-20%" width="140%" height="140%">
      <feGaussianBlur stdDeviation="18"/>
    </filter>
  </defs>
  <rect width="1800" height="900" fill="url(#bg)"/>
  <g opacity=".28" stroke="#2a9da7" stroke-width="3" fill="none">
    <path d="M20 716c92-58 179-70 258-36 82 35 161 23 238-34s154-62 231-15c83 51 172 34 266-50"/>
    <path d="M0 770c118-42 227-43 328-3 114 44 220 38 317-19 109-65 226-65 350 0"/>
  </g>
  <g opacity=".4">
    <circle cx="392" cy="740" r="164" fill="#ffffff"/>
    <circle cx="392" cy="740" r="118" fill="none" stroke="#2a9da7" stroke-width="8"/>
    <circle cx="320" cy="690" r="40" fill="#d8f0ef" stroke="#2a9da7" stroke-width="5"/>
    <circle cx="440" cy="742" r="30" fill="#ecf7f5" stroke="#2a9da7" stroke-width="4"/>
    <circle cx="505" cy="660" r="24" fill="#ecf7f5" stroke="#2a9da7" stroke-width="4"/>
    <circle cx="278" cy="794" r="26" fill="#ecf7f5" stroke="#2a9da7" stroke-width="4"/>
  </g>
  <g transform="translate(1030 82)">
    <path d="M238 0h304c46 0 83 37 83 83v208H155V83c0-46 37-83 83-83z" fill="url(#scope)"/>
    <path d="M205 289h530c42 0 76 34 76 76v39H130v-39c0-42 34-76 75-76z" fill="#162832"/>
    <g fill="#e8f2f3" stroke="#12242d" stroke-width="12">
      <rect x="240" y="362" width="120" height="205" rx="42"/>
      <rect x="410" y="362" width="120" height="205" rx="42"/>
      <rect x="580" y="362" width="120" height="205" rx="42"/>
    </g>
    <g fill="none" stroke="url(#beam)" stroke-width="9" opacity=".82">
      <path d="M300 570v188"/>
      <path d="M470 570v188"/>
      <path d="M640 570v188"/>
    </g>
  </g>
  <g filter="url(#soft)" opacity=".42">
    <circle cx="1160" cy="590" r="150" fill="#2a9da7"/>
    <circle cx="1480" cy="690" r="130" fill="#c45b4d"/>
  </g>
  <g transform="translate(840 420)" fill="none" stroke-linecap="round">
    <path d="M0 25h360" stroke="#2a9da7" stroke-width="6"/>
    <path d="M0 61h360" stroke="#27b579" stroke-width="6"/>
    <path d="M0 97h360" stroke="#d0a73b" stroke-width="6"/>
    <path d="M0 133h360" stroke="#c45b4d" stroke-width="6"/>
    <g fill="#ffffff" stroke="#16303a" stroke-width="5">
      <rect x="280" y="-38" width="96" height="96" rx="8"/>
      <rect x="320" y="10" width="112" height="112" rx="8"/>
      <rect x="360" y="64" width="128" height="128" rx="8"/>
    </g>
    <g opacity=".65" stroke="#2a9da7" stroke-width="3">
      <path d="M300 12c24 16 43 16 67 0"/>
      <path d="M342 60c31 18 55 18 86 0"/>
      <path d="M389 128c34 18 62 18 96 0"/>
    </g>
  </g>
  <rect x="1090" y="714" width="540" height="74" rx="37" fill="#ffffff" opacity=".55"/>
</svg>
